<mxfile host="app.diagrams.net" modified="2024-05-27T13:39:16.224Z" agent="Mozilla/5.0 (Windows NT 10.0; Win64; x64) AppleWebKit/537.36 (KHTML, like Gecko) Chrome/125.0.0.0 Safari/537.36 Edg/125.0.0.0" etag="Q0tlZx_noVaMcwd8gEd1" version="24.4.9" type="google">
  <diagram name="Page-1" id="PiqUnZ2lxb4Yk6MzbGKZ">
    <mxGraphModel grid="1" page="1" gridSize="10" guides="1" tooltips="1" connect="1" arrows="1" fold="1" pageScale="1" pageWidth="850" pageHeight="1100" math="0" shadow="0">
      <root>
        <mxCell id="0" />
        <mxCell id="1" parent="0" />
        <mxCell id="T6qScvdYvvMprz45RRX3-11" style="edgeStyle=orthogonalEdgeStyle;rounded=0;orthogonalLoop=1;jettySize=auto;html=1;exitX=1;exitY=0.5;exitDx=0;exitDy=0;entryX=0;entryY=0.5;entryDx=0;entryDy=0;" edge="1" parent="1" source="T6qScvdYvvMprz45RRX3-1" target="T6qScvdYvvMprz45RRX3-10">
          <mxGeometry relative="1" as="geometry" />
        </mxCell>
        <mxCell id="T6qScvdYvvMprz45RRX3-1" value="" style="swimlane;startSize=0;" vertex="1" parent="1">
          <mxGeometry x="240" y="240" width="330" height="260" as="geometry" />
        </mxCell>
        <mxCell id="T6qScvdYvvMprz45RRX3-5" style="edgeStyle=orthogonalEdgeStyle;rounded=0;orthogonalLoop=1;jettySize=auto;html=1;exitX=0.25;exitY=1;exitDx=0;exitDy=0;entryX=0.25;entryY=0;entryDx=0;entryDy=0;" edge="1" parent="T6qScvdYvvMprz45RRX3-1" source="T6qScvdYvvMprz45RRX3-3" target="T6qScvdYvvMprz45RRX3-4">
          <mxGeometry relative="1" as="geometry" />
        </mxCell>
        <mxCell id="T6qScvdYvvMprz45RRX3-3" value="&lt;font style=&quot;font-size: 15px;&quot;&gt;JSP&lt;/font&gt;" style="rounded=0;whiteSpace=wrap;html=1;" vertex="1" parent="T6qScvdYvvMprz45RRX3-1">
          <mxGeometry x="105" y="40" width="120" height="60" as="geometry" />
        </mxCell>
        <mxCell id="T6qScvdYvvMprz45RRX3-6" style="edgeStyle=orthogonalEdgeStyle;rounded=0;orthogonalLoop=1;jettySize=auto;html=1;exitX=0.75;exitY=0;exitDx=0;exitDy=0;entryX=0.75;entryY=1;entryDx=0;entryDy=0;" edge="1" parent="T6qScvdYvvMprz45RRX3-1" source="T6qScvdYvvMprz45RRX3-4" target="T6qScvdYvvMprz45RRX3-3">
          <mxGeometry relative="1" as="geometry" />
        </mxCell>
        <mxCell id="T6qScvdYvvMprz45RRX3-4" value="&lt;font style=&quot;font-size: 15px;&quot;&gt;Servlet&lt;/font&gt;" style="rounded=0;whiteSpace=wrap;html=1;" vertex="1" parent="T6qScvdYvvMprz45RRX3-1">
          <mxGeometry x="105" y="160" width="120" height="60" as="geometry" />
        </mxCell>
        <mxCell id="T6qScvdYvvMprz45RRX3-2" value="&lt;font style=&quot;font-size: 15px;&quot;&gt;Java&lt;/font&gt;" style="text;html=1;align=center;verticalAlign=middle;resizable=0;points=[];autosize=1;strokeColor=none;fillColor=none;" vertex="1" parent="1">
          <mxGeometry x="240" y="238" width="60" height="30" as="geometry" />
        </mxCell>
        <mxCell id="T6qScvdYvvMprz45RRX3-9" style="edgeStyle=orthogonalEdgeStyle;rounded=0;orthogonalLoop=1;jettySize=auto;html=1;exitX=0.75;exitY=0;exitDx=0;exitDy=0;entryX=0.75;entryY=1;entryDx=0;entryDy=0;" edge="1" parent="1" source="T6qScvdYvvMprz45RRX3-7" target="T6qScvdYvvMprz45RRX3-4">
          <mxGeometry relative="1" as="geometry" />
        </mxCell>
        <mxCell id="T6qScvdYvvMprz45RRX3-7" value="&lt;font style=&quot;font-size: 15px;&quot;&gt;Sql Server&lt;/font&gt;" style="rounded=0;whiteSpace=wrap;html=1;" vertex="1" parent="1">
          <mxGeometry x="345" y="580" width="120" height="60" as="geometry" />
        </mxCell>
        <mxCell id="T6qScvdYvvMprz45RRX3-8" style="edgeStyle=orthogonalEdgeStyle;rounded=0;orthogonalLoop=1;jettySize=auto;html=1;exitX=0.25;exitY=1;exitDx=0;exitDy=0;entryX=0.25;entryY=0;entryDx=0;entryDy=0;" edge="1" parent="1" source="T6qScvdYvvMprz45RRX3-4" target="T6qScvdYvvMprz45RRX3-7">
          <mxGeometry relative="1" as="geometry" />
        </mxCell>
        <mxCell id="T6qScvdYvvMprz45RRX3-10" value="&lt;font style=&quot;font-size: 15px;&quot;&gt;Email API&lt;/font&gt;" style="ellipse;whiteSpace=wrap;html=1;" vertex="1" parent="1">
          <mxGeometry x="670" y="330" width="120" height="80" as="geometry" />
        </mxCell>
      </root>
    </mxGraphModel>
  </diagram>
</mxfile>
